<svg width="100%" height="100%" xmlns="http://www.w3.org/2000/svg">
  <g id="background" style="fill:black">
    <rect x="0" y="0" width="100%" height="100%" />
  </g>
  <g id="ptf_0">
    <g id="solid_ptf_0" style="stroke:white;stroke-width:4">
      <line x1="340" y1="122" x2="515" y2="122" />
    </g>
    <g id="pattern_ptf_0" style="stroke:white;stroke-width:4;stroke-dasharray:4,5">
      <line x1="340" y1="126" x2="515" y2="126" />
    </g>
  </g>
  <g id="ptf_1">
    <g id="solid_ptf_1" style="stroke:white;stroke-width:4">
      <line x1="340" y1="147" x2="515" y2="147" />
    </g>
    <g id="pattern_ptf_1" style="stroke:white;stroke-width:4;stroke-dasharray:4,5">
      <line x1="340" y1="151" x2="515" y2="151" />
    </g>
  </g>
  <g id="ptf_2">
    <g id="solid_ptf_2" style="stroke:white;stroke-width:4">
      <line x1="340" y1="172" x2="515" y2="172" />
    </g>
    <g id="pattern_ptf_2" style="stroke:white;stroke-width:4;stroke-dasharray:4,5">
      <line x1="340" y1="176" x2="515" y2="176" />
    </g>
  </g>
  <g id="ptf_3">
    <g id="solid_ptf_3" style="stroke:white;stroke-width:4">
      <line x1="340" y1="197" x2="515" y2="197" />
    </g>
    <g id="pattern_ptf_3" style="stroke:white;stroke-width:4;stroke-dasharray:4,5">
      <line x1="340" y1="201" x2="515" y2="201" />
    </g>
  </g>
  <g id="ptf_4">
    <g id="solid_ptf_4" style="stroke:white;stroke-width:4">
      <line x1="1080" y1="666" x2="1255" y2="666" />
    </g>
    <g id="pattern_ptf_4" style="stroke:white;stroke-width:4;stroke-dasharray:4,5">
      <line x1="1080" y1="662" x2="1255" y2="662" />
    </g>
  </g>
  <g id="ptf_5">
    <g id="solid_ptf_5" style="stroke:white;stroke-width:4">
      <line x1="1080" y1="703" x2="1255" y2="703" />
    </g>
    <g id="pattern_ptf_5" style="stroke:white;stroke-width:4;stroke-dasharray:4,5">
      <line x1="1080" y1="699" x2="1255" y2="699" />
    </g>
  </g>
  <g id="crs_1" style="stroke:red;stroke-width:4">
    <line x1="3" y1="280" x2="83" y2="280" />
    <line x1="-5" y1="272" x2="3" y2="280" />
    <line x1="-5" y1="288" x2="3" y2="280" />
    <line x1="91" y1="272" x2="83" y2="280" />
    <line x1="91" y1="288" x2="83" y2="280" />
  </g>
  <g id="crs_2" style="stroke:red;stroke-width:4">
    <line x1="1300" y1="403" x2="1300" y2="423" />
    <line x1="1292" y1="395" x2="1300" y2="403" />
    <line x1="1308" y1="395" x2="1300" y2="403" />
    <line x1="1292" y1="431" x2="1300" y2="423" />
    <line x1="1308" y1="431" x2="1300" y2="423" />
  </g>
  <g id="lty_1">
    <g id="frg_lty_1" style="stroke:white;fill:white;" />
    <g id="ac_0_lty_1" style="stroke-width:5;stroke:yellow;">
      <line x1="10" y1="324" x2="10" y2="285" />
      <line x1="10" y1="275" x2="10" y2="150" />
      <line x1="10" y1="151" x2="81" y2="80" />
      <line x1="80" y1="80" x2="540" y2="80" />
    </g>
    <g id="pa_0_lty_1" style="stroke-width:5;stroke:yellow;" />
    <rect x="16" y="225" width="24" height="14" rx="5" ry="5" style="fill:#404040;stroke:transparent;" />
    <text x="28" y="232" style="fill:white;font-family:Arial;text-anchor:middle;dominant-baseline:middle;font-size:9px">C01</text>
  </g>
  <g id="lty_2">
	  <polygon points="60,250 90,250 90,320 60,320" fill="rgba(255,255,0,0.3)" stroke="none"/>
    <g id="frg_lty_2" style="stroke:white;fill:white;" />
    <g id="ac_0_lty_2" style="stroke-width:5;stroke:yellow;">
      <line x1="75" y1="253" x2="75" y2="275" />
      <line x1="75" y1="285" x2="75" y2="324" />
    </g>
    <g id="pa_0_lty_2" style="stroke-width:5;stroke:yellow;" />
    <rect x="37" y="301" width="24" height="14" rx="5" ry="5" style="fill:#404040;stroke:transparent;" />
    <text x="49" y="308" style="fill:white;font-family:Arial;text-anchor:middle;dominant-baseline:middle;font-size:9px">C02</text>
  </g>
  <g id="lty_4">
    <g id="frg_lty_4" style="stroke:white;fill:white;">
      <rect x="160" y="187" width="7" height="7" />
      <rect x="245" y="137" width="7" height="7" />
      <rect x="245" y="187" width="7" height="7" />
    </g>
    <g id="ac_0_lty_4" style="stroke-width:5;stroke:yellow;">
      <line x1="75" y1="210" x2="75" y2="249" />
      <line x1="74" y1="211" x2="96" y2="189" />
      <line x1="95" y1="190" x2="158" y2="190" />
      <line x1="169" y1="190" x2="243" y2="190" />
      <line x1="254" y1="190" x2="335" y2="190" />
    </g>
    <g id="pa_0_lty_4" style="stroke-width:5;stroke:yellow;">
      <line x1="185" y1="180" x2="225" y2="140" />
      <line x1="224" y1="140" x2="243" y2="140" />
      <line x1="270" y1="180" x2="285" y2="165" />
      <line x1="284" y1="165" x2="335" y2="165" />
      <line x1="254" y1="140" x2="335" y2="140" />
      <line x1="270" y1="130" x2="285" y2="115" />
      <line x1="284" y1="115" x2="335" y2="115" />
    </g>
    <g id="ac_1_lty_4" display="none" style="stroke-width:5;stroke:yellow;">
      <line x1="75" y1="210" x2="75" y2="249" />
      <line x1="74" y1="211" x2="96" y2="189" />
      <line x1="95" y1="190" x2="158" y2="190" />
      <line x1="169" y1="190" x2="243" y2="190" />
      <line x1="254" y1="190" x2="261" y2="190" />
      <line x1="260" y1="190" x2="285" y2="165" />
      <line x1="284" y1="165" x2="335" y2="165" />
    </g>
    <g id="pa_1_lty_4" display="none" style="stroke-width:5;stroke:yellow;">
      <line x1="185" y1="180" x2="225" y2="140" />
      <line x1="224" y1="140" x2="243" y2="140" />
      <line x1="274" y1="190" x2="335" y2="190" />
      <line x1="254" y1="140" x2="335" y2="140" />
      <line x1="270" y1="130" x2="285" y2="115" />
      <line x1="284" y1="115" x2="335" y2="115" />
    </g>
    <g id="ac_2_lty_4" display="none" style="stroke-width:5;stroke:yellow;">
      <line x1="75" y1="210" x2="75" y2="249" />
      <line x1="74" y1="211" x2="96" y2="189" />
      <line x1="95" y1="190" x2="158" y2="190" />
      <line x1="169" y1="190" x2="176" y2="190" />
      <line x1="175" y1="190" x2="225" y2="140" />
      <line x1="224" y1="140" x2="243" y2="140" />
      <line x1="254" y1="140" x2="335" y2="140" />
    </g>
    <g id="pa_2_lty_4" display="none" style="stroke-width:5;stroke:yellow;">
      <line x1="189" y1="190" x2="243" y2="190" />
      <line x1="254" y1="190" x2="335" y2="190" />
      <line x1="270" y1="180" x2="285" y2="165" />
      <line x1="284" y1="165" x2="335" y2="165" />
      <line x1="270" y1="130" x2="285" y2="115" />
      <line x1="284" y1="115" x2="335" y2="115" />
    </g>
    <g id="ac_3_lty_4" display="none" style="stroke-width:5;stroke:yellow;">
      <line x1="75" y1="210" x2="75" y2="249" />
      <line x1="74" y1="211" x2="96" y2="189" />
      <line x1="95" y1="190" x2="158" y2="190" />
      <line x1="169" y1="190" x2="176" y2="190" />
      <line x1="175" y1="190" x2="225" y2="140" />
      <line x1="224" y1="140" x2="243" y2="140" />
      <line x1="254" y1="140" x2="261" y2="140" />
      <line x1="260" y1="140" x2="285" y2="115" />
      <line x1="284" y1="115" x2="335" y2="115" />
    </g>
    <g id="pa_3_lty_4" display="none" style="stroke-width:5;stroke:yellow;">
      <line x1="189" y1="190" x2="243" y2="190" />
      <line x1="254" y1="190" x2="335" y2="190" />
      <line x1="270" y1="180" x2="285" y2="165" />
      <line x1="284" y1="165" x2="335" y2="165" />
      <line x1="274" y1="140" x2="335" y2="140" />
    </g>
    <rect x="225" y="152" width="24" height="14" rx="5" ry="5" style="fill:#404040;stroke:transparent;" />
    <text x="237" y="159" style="fill:white;font-family:Arial;text-anchor:middle;dominant-baseline:middle;font-size:9px">C04</text>
  </g>
  <g id="lty_5">
    <g id="frg_lty_5" style="stroke:white;fill:white;" />
    <g id="ac_0_lty_5" style="stroke-width:5;stroke:yellow;">
      <line x1="340" y1="115" x2="540" y2="115" />
    </g>
    <g id="pa_0_lty_5" style="stroke-width:5;stroke:yellow;" />
  </g>
  <g id="lty_6">
    <g id="frg_lty_6" style="stroke:white;fill:white;" />
    <g id="ac_0_lty_6" style="stroke-width:5;stroke:yellow;">
      <line x1="340" y1="140" x2="540" y2="140" />
    </g>
    <g id="pa_0_lty_6" style="stroke-width:5;stroke:yellow;" />
  </g>
  <g id="lty_7">
    <g id="frg_lty_7" style="stroke:white;fill:white;" />
    <g id="ac_0_lty_7" style="stroke-width:5;stroke:yellow;">
      <line x1="340" y1="165" x2="540" y2="165" />
    </g>
    <g id="pa_0_lty_7" style="stroke-width:5;stroke:yellow;" />
  </g>
  <g id="lty_8">
    <g id="frg_lty_8" style="stroke:white;fill:white;" />
    <g id="ac_0_lty_8" style="stroke-width:5;stroke:yellow;">
      <line x1="340" y1="190" x2="540" y2="190" />
    </g>
    <g id="pa_0_lty_8" style="stroke-width:5;stroke:yellow;" />
  </g>
  <g id="lty_10">
    <g id="frg_lty_10" style="stroke:white;fill:white;">
      <rect x="645" y="112" width="7" height="7" />
    </g>
    <g id="ac_0_lty_10" style="stroke-width:5;stroke:yellow;">
      <line x1="654" y1="115" x2="695" y2="115" />
      <line x1="545" y1="115" x2="643" y2="115" />
    </g>
    <g id="pa_0_lty_10" style="stroke-width:5;stroke:yellow;">
      <line x1="545" y1="140" x2="616" y2="140" />
      <line x1="615" y1="140" x2="628" y2="125" />
    </g>
    <g id="ac_1_lty_10" display="none" style="stroke-width:5;stroke:yellow;">
      <line x1="654" y1="115" x2="695" y2="115" />
      <line x1="545" y1="140" x2="616" y2="140" />
      <line x1="615" y1="140" x2="635" y2="115" />
      <line x1="634" y1="115" x2="643" y2="115" />
    </g>
    <g id="pa_1_lty_10" display="none" style="stroke-width:5;stroke:yellow;">
      <line x1="545" y1="115" x2="620" y2="115" />
    </g>
    <rect x="658" y="119" width="24" height="14" rx="5" ry="5" style="fill:#404040;stroke:transparent;" />
    <text x="670" y="126" style="fill:white;font-family:Arial;text-anchor:middle;dominant-baseline:middle;font-size:9px">C08</text>
  </g>
  <g id="lty_11">
    <g id="frg_lty_11" style="stroke:white;fill:white;" />
    <g id="ac_0_lty_11" style="stroke-width:5;stroke:yellow;">
      <line x1="545" y1="80" x2="695" y2="80" />
    </g>
    <g id="pa_0_lty_11" style="stroke-width:5;stroke:yellow;" />
    <rect x="658" y="84" width="24" height="14" rx="5" ry="5" style="fill:#404040;stroke:transparent;" />
    <text x="670" y="91" style="fill:white;font-family:Arial;text-anchor:middle;dominant-baseline:middle;font-size:9px">C07</text>
  </g>
  <g id="lty_12">
    <g id="frg_lty_12" style="stroke:white;fill:white;">
      <rect x="645" y="187" width="7" height="7" />
    </g>
    <g id="ac_0_lty_12" style="stroke-width:5;stroke:yellow;">
      <line x1="545" y1="190" x2="643" y2="190" />
      <line x1="654" y1="190" x2="695" y2="190" />
    </g>
    <g id="pa_0_lty_12" style="stroke-width:5;stroke:yellow;">
      <line x1="545" y1="165" x2="616" y2="165" />
      <line x1="615" y1="165" x2="628" y2="180" />
    </g>
    <g id="ac_1_lty_12" display="none" style="stroke-width:5;stroke:yellow;">
      <line x1="654" y1="190" x2="695" y2="190" />
      <line x1="545" y1="165" x2="616" y2="165" />
      <line x1="615" y1="165" x2="635" y2="190" />
      <line x1="634" y1="190" x2="643" y2="190" />
    </g>
    <g id="pa_1_lty_12" display="none" style="stroke-width:5;stroke:yellow;">
      <line x1="545" y1="190" x2="620" y2="190" />
    </g>
    <rect x="658" y="164" width="24" height="14" rx="5" ry="5" style="fill:#404040;stroke:transparent;" />
    <text x="670" y="171" style="fill:white;font-family:Arial;text-anchor:middle;dominant-baseline:middle;font-size:9px">C06</text>
  </g>
  <g id="lty_13">
    <g id="frg_lty_13" style="stroke:white;fill:white;" />
    <g id="ac_0_lty_13" style="stroke-width:5;stroke:yellow;">
      <line x1="10" y1="328" x2="10" y2="630" />
      <line x1="10" y1="630" x2="80" y2="710" />
      <line x1="80" y1="710" x2="928" y2="710" />
    </g>
    <g id="pa_0_lty_13" style="stroke-width:5;stroke:yellow;" />
  </g>
  <g id="lty_14">
    <g id="frg_lty_14" style="stroke:white;fill:white;" />
    <g id="ac_0_lty_14" style="stroke-width:5;stroke:yellow;">
      <line x1="75" y1="328" x2="75" y2="653" />
      <line x1="74" y1="652" x2="96" y2="674" />
      <line x1="95" y1="673" x2="696" y2="673" />
    </g>
    <g id="pa_0_lty_14" style="stroke-width:5;stroke:yellow;" />
  </g>
  <g id="lty_15">
    <g id="frg_lty_15" style="stroke:white;fill:white;">
      <rect x="840" y="77" width="7" height="7" />
      <rect x="750" y="112" width="7" height="7" />
    </g>
    <g id="ac_0_lty_15" style="stroke-width:5;stroke:yellow;">
      <line x1="700" y1="80" x2="838" y2="80" />
      <line x1="849" y1="80" x2="971" y2="80" />
      <line x1="970" y1="79" x2="1020" y2="139" />
      <line x1="1020" y1="138" x2="1020" y2="150" />
    </g>
    <g id="pa_0_lty_15" style="stroke-width:5;stroke:yellow;">
      <line x1="700" y1="115" x2="748" y2="115" />
      <line x1="759" y1="115" x2="799" y2="115" />
      <line x1="770" y1="123" x2="796" y2="150" />
      <line x1="798" y1="115" x2="823" y2="90" />
      <line x1="796" y1="149" x2="796" y2="160" />
    </g>
    <g id="ac_1_lty_15" display="none" style="stroke-width:5;stroke:yellow;">
      <line x1="700" y1="115" x2="748" y2="115" />
      <line x1="798" y1="115" x2="833" y2="80" />
      <line x1="832" y1="80" x2="838" y2="80" />
      <line x1="759" y1="115" x2="799" y2="115" />
      <line x1="849" y1="80" x2="971" y2="80" />
      <line x1="970" y1="79" x2="1020" y2="139" />
      <line x1="1020" y1="138" x2="1020" y2="150" />
    </g>
    <g id="pa_1_lty_15" display="none" style="stroke-width:5;stroke:yellow;">
      <line x1="700" y1="80" x2="818" y2="80" />
      <line x1="770" y1="123" x2="796" y2="150" />
      <line x1="796" y1="149" x2="796" y2="160" />
    </g>
    <rect x="720" y="84" width="24" height="14" rx="5" ry="5" style="fill:#404040;stroke:transparent;" />
    <text x="732" y="91" style="fill:white;font-family:Arial;text-anchor:middle;dominant-baseline:middle;font-size:9px">C11</text>
  </g>
  <g id="lty_16">
    <g id="frg_lty_16" style="stroke:white;fill:white;">
      <rect x="730" y="187" width="7" height="7" />
    </g>
    <g id="ac_0_lty_16" style="stroke-width:5;stroke:yellow;">
      <line x1="700" y1="190" x2="728" y2="190" />
      <line x1="739" y1="190" x2="860" y2="190" />
    </g>
    <g id="pa_0_lty_16" style="stroke-width:5;stroke:yellow;">
      <line x1="752" y1="200" x2="769" y2="217" />
    </g>
    <g id="ac_1_lty_16" display="none" style="stroke-width:5;stroke:yellow;">
      <line x1="700" y1="190" x2="728" y2="190" />
      <line x1="739" y1="190" x2="743" y2="190" />
      <line x1="742" y1="190" x2="769" y2="217" />
    </g>
    <g id="pa_1_lty_16" display="none" style="stroke-width:5;stroke:yellow;">
      <line x1="757" y1="190" x2="860" y2="190" />
    </g>
    <rect x="720" y="164" width="24" height="14" rx="5" ry="5" style="fill:#404040;stroke:transparent;" />
    <text x="732" y="171" style="fill:white;font-family:Arial;text-anchor:middle;dominant-baseline:middle;font-size:9px">C12</text>
  </g>
  <g id="lty_17">
    <g id="frg_lty_17" style="stroke:white;fill:white;">
      <rect x="793" y="162" width="7" height="7" />
    </g>
    <g id="ac_0_lty_17" style="stroke-width:5;stroke:yellow;">
      <line x1="796" y1="171" x2="796" y2="185" />
      <line x1="796" y1="195" x2="796" y2="212" />
    </g>
    <g id="pa_0_lty_17" style="stroke-width:5;stroke:yellow;">
      <line x1="806" y1="169" x2="819" y2="184" />
      <line x1="830" y1="195" x2="851" y2="216" />
    </g>
  </g>
  <g id="lty_18">
    <g id="frg_lty_18" style="stroke:white;fill:white;">
      <rect x="886" y="187" width="7" height="7" />
    </g>
    <g id="ac_0_lty_18" style="stroke-width:5;stroke:yellow;">
      <line x1="864" y1="190" x2="884" y2="190" />
      <line x1="895" y1="190" x2="995" y2="190" />
      <line x1="994" y1="190" x2="999" y2="195" />
    </g>
    <g id="pa_0_lty_18" style="stroke-width:5;stroke:yellow;">
      <line x1="910" y1="200" x2="950" y2="250" />
    </g>
    <g id="ac_1_lty_18" display="none" style="stroke-width:5;stroke:yellow;">
      <line x1="864" y1="190" x2="884" y2="190" />
      <line x1="895" y1="190" x2="901" y2="190" />
      <line x1="900" y1="190" x2="950" y2="250" />
    </g>
    <g id="pa_1_lty_18" display="none" style="stroke-width:5;stroke:yellow;">
      <line x1="915" y1="190" x2="995" y2="190" />
      <line x1="994" y1="190" x2="999" y2="195" />
    </g>
    <rect x="864" y="164" width="24" height="14" rx="5" ry="5" style="fill:#404040;stroke:transparent;" />
    <text x="876" y="171" style="fill:white;font-family:Arial;text-anchor:middle;dominant-baseline:middle;font-size:9px">C14</text>
  </g>
  <g id="lty_19">
    <g id="frg_lty_19" style="stroke:white;fill:white;">
      <rect x="1017" y="226" width="7" height="7" />
      <rect x="1017" y="256" width="7" height="7" />
      <rect x="1017" y="341" width="7" height="7" />
    </g>
    <g id="ac_0_lty_19" style="stroke-width:5;stroke:yellow;">
      <line x1="1020" y1="154" x2="1020" y2="224" />
      <line x1="1020" y1="235" x2="1020" y2="254" />
      <line x1="1020" y1="265" x2="1020" y2="339" />
      <line x1="1020" y1="350" x2="1020" y2="364" />
    </g>
    <g id="pa_0_lty_19" style="stroke-width:5;stroke:yellow;">
      <line x1="1001" y1="197" x2="1010" y2="206" />
      <line x1="952" y1="253" x2="1010" y2="321" />
      <line x1="1030" y1="284" x2="1050" y2="304" />
      <line x1="1049" y1="304" x2="1060" y2="304" />
    </g>
    <g id="ac_1_lty_19" display="none" style="stroke-width:5;stroke:yellow;">
      <line x1="1001" y1="197" x2="1020" y2="216" />
      <line x1="1020" y1="215" x2="1020" y2="224" />
      <line x1="1020" y1="235" x2="1020" y2="254" />
      <line x1="1020" y1="265" x2="1020" y2="339" />
      <line x1="1020" y1="350" x2="1020" y2="364" />
    </g>
    <g id="pa_1_lty_19" display="none" style="stroke-width:5;stroke:yellow;">
      <line x1="1020" y1="154" x2="1020" y2="201" />
      <line x1="952" y1="253" x2="1010" y2="321" />
      <line x1="1030" y1="284" x2="1050" y2="304" />
      <line x1="1049" y1="304" x2="1060" y2="304" />
    </g>
    <g id="ac_2_lty_19" display="none" style="stroke-width:5;stroke:yellow;">
      <line x1="952" y1="253" x2="1020" y2="333" />
      <line x1="1020" y1="332" x2="1020" y2="339" />
      <line x1="1020" y1="350" x2="1020" y2="364" />
    </g>
    <g id="pa_2_lty_19" display="none" style="stroke-width:5;stroke:yellow;">
      <line x1="1001" y1="197" x2="1010" y2="206" />
      <line x1="1020" y1="154" x2="1020" y2="224" />
      <line x1="1020" y1="235" x2="1020" y2="254" />
      <line x1="1030" y1="284" x2="1050" y2="304" />
      <line x1="1049" y1="304" x2="1060" y2="304" />
      <line x1="1020" y1="265" x2="1020" y2="314" />
    </g>
    <rect x="1026" y="234" width="24" height="14" rx="5" ry="5" style="fill:#404040;stroke:transparent;" />
    <text x="1038" y="241" style="fill:white;font-family:Arial;text-anchor:middle;dominant-baseline:middle;font-size:9px">C15</text>
  </g>
  <g id="lty_20">
    <g id="frg_lty_20" style="stroke:white;fill:white;" />
    <g id="ac_0_lty_20" style="stroke-width:5;stroke:yellow;">
      <line x1="1064" y1="304" x2="1084" y2="304" />
      <line x1="1087" y1="304" x2="1094" y2="304" />
      <line x1="1097" y1="304" x2="1099" y2="304" />
    </g>
    <g id="pa_0_lty_20" style="stroke-width:5;stroke:yellow;" />
  </g>
  <g id="lty_21">
    <g id="frg_lty_21" style="stroke:white;fill:white;">
      <rect x="1017" y="385" width="7" height="7" />
      <rect x="1047" y="410" width="7" height="7" />
      <rect x="1017" y="436" width="7" height="7" />
    </g>
    <g id="ac_0_lty_21" style="stroke-width:5;stroke:yellow;">
      <line x1="1020" y1="368" x2="1020" y2="383" />
      <line x1="1020" y1="394" x2="1020" y2="433" />
      <line x1="1020" y1="446" x2="1020" y2="458" />
    </g>
    <g id="pa_0_lty_21" style="stroke-width:5;stroke:yellow;">
      <line x1="1034" y1="413" x2="1045" y2="413" />
      <line x1="1056" y1="413" x2="1076" y2="413" />
    </g>
    <g id="ac_1_lty_21" display="none" style="stroke-width:5;stroke:yellow;">
      <line x1="1020" y1="368" x2="1020" y2="383" />
      <line x1="1020" y1="394" x2="1020" y2="400" />
      <line x1="1020" y1="398" x2="1035" y2="413" />
      <line x1="1034" y1="413" x2="1045" y2="413" />
      <line x1="1056" y1="413" x2="1076" y2="413" />
    </g>
    <g id="pa_1_lty_21" display="none" style="stroke-width:5;stroke:yellow;">
      <line x1="1020" y1="415" x2="1020" y2="433" />
      <line x1="1020" y1="446" x2="1020" y2="458" />
    </g>
    <rect x="1036" y="387" width="24" height="14" rx="5" ry="5" style="fill:#404040;stroke:transparent;" />
    <text x="1048" y="394" style="fill:white;font-family:Arial;text-anchor:middle;dominant-baseline:middle;font-size:9px">C17</text>
  </g>
  <g id="lty_22">
    <g id="frg_lty_22" style="stroke:white;fill:white;" />
    <g id="ac_0_lty_22" style="stroke-width:5;stroke:yellow;">
      <line x1="1080" y1="413" x2="1295" y2="413" />
      <line x1="1305" y1="413" x2="1380" y2="413" />
    </g>
    <g id="pa_0_lty_22" style="stroke-width:5;stroke:yellow;" />
    <rect x="1080" y="417" width="24" height="14" rx="5" ry="5" style="fill:#404040;stroke:transparent;" />
    <text x="1092" y="424" style="fill:white;font-family:Arial;text-anchor:middle;dominant-baseline:middle;font-size:9px">C18</text>
  </g>
  <g id="lty_23">
    <g id="frg_lty_23" style="stroke:white;fill:white;" />
    <g id="ac_0_lty_23" style="stroke-width:5;stroke:yellow;">
      <line x1="1384" y1="413" x2="1434" y2="413" />
      <line x1="1433" y1="413" x2="1465" y2="443" />
      <line x1="1464" y1="442" x2="1464" y2="644" />
      <line x1="1464" y1="643" x2="1434" y2="673" />
      <line x1="1384" y1="673" x2="1435" y2="673" />
    </g>
    <g id="pa_0_lty_23" style="stroke-width:5;stroke:yellow;" />
    <rect x="1426" y="543" width="24" height="14" rx="5" ry="5" style="fill:#404040;stroke:transparent;" />
    <text x="1438" y="550" style="fill:white;font-family:Arial;text-anchor:middle;dominant-baseline:middle;font-size:9px">C19</text>
  </g>
  <g id="lty_24">
    <g id="frg_lty_24" style="stroke:white;fill:white;" />
    <g id="ac_0_lty_24" style="stroke-width:5;stroke:yellow;">
      <line x1="1384" y1="710" x2="1404" y2="710" />
      <line x1="1407" y1="710" x2="1414" y2="710" />
      <line x1="1417" y1="710" x2="1419" y2="710" />
    </g>
    <g id="pa_0_lty_24" style="stroke-width:5;stroke:yellow;" />
  </g>
  <g id="lty_25">
    <g id="frg_lty_25" style="stroke:white;fill:white;">
      <rect x="1340" y="670" width="7" height="7" />
      <rect x="1275" y="707" width="7" height="7" />
    </g>
    <g id="ac_0_lty_25" style="stroke-width:5;stroke:yellow;">
      <line x1="1260" y1="673" x2="1338" y2="673" />
      <line x1="1349" y1="673" x2="1380" y2="673" />
    </g>
    <g id="pa_0_lty_25" style="stroke-width:5;stroke:yellow;">
      <line x1="1301" y1="702" x2="1322" y2="681" />
      <line x1="1260" y1="710" x2="1273" y2="710" />
      <line x1="1284" y1="710" x2="1380" y2="710" />
    </g>
    <g id="ac_1_lty_25" display="none" style="stroke-width:5;stroke:yellow;">
      <line x1="1260" y1="710" x2="1273" y2="710" />
      <line x1="1284" y1="710" x2="1380" y2="710" />
    </g>
    <g id="pa_1_lty_25" display="none" style="stroke-width:5;stroke:yellow;">
      <line x1="1301" y1="702" x2="1322" y2="681" />
      <line x1="1260" y1="673" x2="1338" y2="673" />
      <line x1="1349" y1="673" x2="1380" y2="673" />
    </g>
    <g id="ac_2_lty_25" display="none" style="stroke-width:5;stroke:yellow;">
      <line x1="1293" y1="710" x2="1330" y2="673" />
      <line x1="1329" y1="673" x2="1338" y2="673" />
      <line x1="1349" y1="673" x2="1380" y2="673" />
      <line x1="1260" y1="710" x2="1273" y2="710" />
      <line x1="1284" y1="710" x2="1294" y2="710" />
    </g>
    <g id="pa_2_lty_25" display="none" style="stroke-width:5;stroke:yellow;">
      <line x1="1260" y1="673" x2="1315" y2="673" />
      <line x1="1308" y1="710" x2="1380" y2="710" />
    </g>
    <rect x="1260" y="680" width="24" height="14" rx="5" ry="5" style="fill:#404040;stroke:transparent;" />
    <text x="1272" y="687" style="fill:white;font-family:Arial;text-anchor:middle;dominant-baseline:middle;font-size:9px">C21</text>
  </g>
  <g id="lty_26">
    <g id="frg_lty_26" style="stroke:white;fill:white;" />
    <g id="ac_0_lty_26" style="stroke-width:5;stroke:yellow;">
      <line x1="1056" y1="673" x2="1256" y2="673" />
    </g>
    <g id="pa_0_lty_26" style="stroke-width:5;stroke:yellow;" />
  </g>
  <g id="lty_27">
    <g id="frg_lty_27" style="stroke:white;fill:white;" />
    <g id="ac_0_lty_27" style="stroke-width:5;stroke:yellow;">
      <line x1="1056" y1="710" x2="1256" y2="710" />
    </g>
    <g id="pa_0_lty_27" style="stroke-width:5;stroke:yellow;" />
  </g>
  <g id="lty_28">
    <g id="frg_lty_28" style="stroke:white;fill:white;">
      <rect x="947" y="670" width="7" height="7" />
      <rect x="1012" y="707" width="7" height="7" />
    </g>
    <g id="ac_0_lty_28" style="stroke-width:5;stroke:yellow;">
      <line x1="932" y1="673" x2="945" y2="673" />
      <line x1="956" y1="673" x2="1052" y2="673" />
    </g>
    <g id="pa_0_lty_28" style="stroke-width:5;stroke:yellow;">
      <line x1="932" y1="710" x2="1010" y2="710" />
      <line x1="1021" y1="710" x2="1052" y2="710" />
      <line x1="973" y1="681" x2="994" y2="702" />
    </g>
    <g id="ac_1_lty_28" display="none" style="stroke-width:5;stroke:yellow;">
      <line x1="932" y1="710" x2="1010" y2="710" />
      <line x1="1021" y1="710" x2="1052" y2="710" />
    </g>
    <g id="pa_1_lty_28" display="none" style="stroke-width:5;stroke:yellow;">
      <line x1="973" y1="681" x2="994" y2="702" />
      <line x1="932" y1="673" x2="945" y2="673" />
      <line x1="956" y1="673" x2="1052" y2="673" />
    </g>
    <g id="ac_2_lty_28" display="none" style="stroke-width:5;stroke:yellow;">
      <line x1="932" y1="673" x2="945" y2="673" />
      <line x1="956" y1="673" x2="966" y2="673" />
      <line x1="1021" y1="710" x2="1052" y2="710" />
      <line x1="965" y1="673" x2="1002" y2="710" />
      <line x1="1001" y1="710" x2="1010" y2="710" />
    </g>
    <g id="pa_2_lty_28" display="none" style="stroke-width:5;stroke:yellow;">
      <line x1="980" y1="673" x2="1052" y2="673" />
      <line x1="932" y1="710" x2="987" y2="710" />
    </g>
    <rect x="932" y="680" width="24" height="14" rx="5" ry="5" style="fill:#404040;stroke:transparent;" />
    <text x="944" y="687" style="fill:white;font-family:Arial;text-anchor:middle;dominant-baseline:middle;font-size:9px">C22</text>
  </g>
  <g id="lty_29">
    <g id="frg_lty_29" style="stroke:white;fill:white;" />
    <g id="ac_0_lty_29" style="stroke-width:5;stroke:yellow;">
      <line x1="1020" y1="462" x2="1020" y2="483" />
      <line x1="1020" y1="482" x2="990" y2="512" />
      <line x1="809" y1="512" x2="991" y2="512" />
      <line x1="780" y1="542" x2="810" y2="512" />
      <line x1="780" y1="541" x2="780" y2="562" />
    </g>
    <g id="pa_0_lty_29" style="stroke-width:5;stroke:yellow;" />
    <rect x="930" y="516" width="24" height="14" rx="5" ry="5" style="fill:#404040;stroke:transparent;" />
    <text x="942" y="523" style="fill:white;font-family:Arial;text-anchor:middle;dominant-baseline:middle;font-size:9px">C23</text>
  </g>
  <g id="lty_30">
    <g id="frg_lty_30" style="stroke:white;fill:white;">
      <rect x="777" y="578" width="7" height="7" />
      <rect x="711" y="670" width="7" height="7" />
      <rect x="858" y="670" width="7" height="7" />
    </g>
    <g id="ac_0_lty_30" style="stroke-width:5;stroke:yellow;">
      <line x1="720" y1="673" x2="856" y2="673" />
      <line x1="700" y1="673" x2="708" y2="673" />
      <line x1="867" y1="673" x2="928" y2="673" />
    </g>
    <g id="pa_0_lty_30" style="stroke-width:5;stroke:yellow;">
      <line x1="780" y1="566" x2="780" y2="576" />
      <line x1="780" y1="587" x2="780" y2="622" />
      <line x1="738" y1="663" x2="780" y2="621" />
      <line x1="790" y1="611" x2="842" y2="663" />
    </g>
    <g id="ac_1_lty_30" display="none" style="stroke-width:5;stroke:yellow;">
      <line x1="780" y1="566" x2="780" y2="576" />
      <line x1="780" y1="587" x2="780" y2="622" />
      <line x1="728" y1="673" x2="780" y2="621" />
      <line x1="720" y1="673" x2="729" y2="673" />
      <line x1="700" y1="673" x2="708" y2="673" />
    </g>
    <g id="pa_1_lty_30" display="none" style="stroke-width:5;stroke:yellow;">
      <line x1="790" y1="611" x2="842" y2="663" />
      <line x1="745" y1="673" x2="856" y2="673" />
      <line x1="867" y1="673" x2="928" y2="673" />
    </g>
    <g id="ac_2_lty_30" display="none" style="stroke-width:5;stroke:yellow;">
      <line x1="780" y1="566" x2="780" y2="576" />
      <line x1="780" y1="587" x2="780" y2="602" />
      <line x1="780" y1="601" x2="852" y2="673" />
      <line x1="851" y1="673" x2="856" y2="673" />
      <line x1="867" y1="673" x2="928" y2="673" />
    </g>
    <g id="pa_2_lty_30" display="none" style="stroke-width:5;stroke:yellow;">
      <line x1="700" y1="673" x2="708" y2="673" />
      <line x1="720" y1="673" x2="837" y2="673" />
      <line x1="780" y1="612" x2="780" y2="622" />
      <line x1="738" y1="663" x2="780" y2="621" />
    </g>
    <rect x="775" y="647" width="24" height="14" rx="5" ry="5" style="fill:#404040;stroke:transparent;" />
    <text x="787" y="654" style="fill:white;font-family:Arial;text-anchor:middle;dominant-baseline:middle;font-size:9px">C24</text>
  </g>
  <g id="sig_1">
    <g id="mst_sig_1" style="stroke:red;stroke-width:2">
      <g id="bs_mst_sig_1" style="stroke-width:3">
        <line x1="17" y1="323" x2="27" y2="323" />
      </g>
      <line x1="22" y1="305" x2="22" y2="322" />
    </g>
    <g id="rbs_sig_1" style="fill:transparent">
      <rect x="18" y="306" width="8" height="8" />
    </g>
    <g id="cir_sig_1" style="fill:red">
      <circle cx="22" cy="300" r="5" />
    </g>
    <g id="lbl_sig_1" style="fill:lightgrey;">
      <text x="26" y="331" style="fill:white;font-family:Arial;text-anchor:middle;dominant-baseline:middle;font-size:9px">AI1</text>
    </g>
  </g>
  <g id="sig_2">
    <g id="mst_sig_2" style="stroke:red;stroke-width:2">
      <g id="bs_mst_sig_2" style="stroke-width:3">
        <line x1="82" y1="323" x2="92" y2="323" />
      </g>
      <line x1="87" y1="305" x2="87" y2="322" />
    </g>
    <g id="rbs_sig_2" style="fill:transparent">
      <rect x="83" y="306" width="8" height="8" />
    </g>
    <g id="cir_sig_2" style="fill:red">
      <circle cx="87" cy="300" r="5" />
    </g>
    <g id="lbl_sig_2" style="fill:lightgrey;">
      <text x="91" y="331" style="fill:white;font-family:Arial;text-anchor:middle;dominant-baseline:middle;font-size:9px">A1</text>
    </g>
  </g>
  <g id="sig_4">
    <g id="mst_sig_4" style="stroke:red;stroke-width:2">
      <g id="bs_mst_sig_4" style="stroke-width:3">
        <line x1="82" y1="248" x2="92" y2="248" />
      </g>
      <line x1="87" y1="230" x2="87" y2="247" />
    </g>
    <g id="rbs_sig_4" style="fill:transparent">
      <rect x="83" y="231" width="8" height="8" />
    </g>
    <g id="cir_sig_4" style="fill:red">
      <circle cx="87" cy="225" r="5" />
    </g>
    <g id="lbl_sig_4" style="fill:lightgrey;">
      <text x="91" y="256" style="fill:white;font-family:Arial;text-anchor:middle;dominant-baseline:middle;font-size:9px">E1</text>
    </g>
  </g>
  <g id="sig_5">
    <g id="mst_sig_5" style="stroke:red;stroke-width:2">
      <g id="bs_mst_sig_5" style="stroke-width:3">
        <line x1="546" y1="195" x2="546" y2="205" />
      </g>
      <line x1="546" y1="200" x2="564" y2="200" />
    </g>
    <g id="rbs_sig_5" style="fill:transparent">
      <rect x="555" y="196" width="8" height="8" />
    </g>
    <g id="cir_sig_5" style="fill:red">
      <circle cx="569" cy="200" r="5" />
    </g>
    <g id="lbl_sig_5" style="fill:lightgrey;">
      <text x="530" y="199" style="fill:white;font-family:Arial;text-anchor:middle;dominant-baseline:middle;font-size:9px">S1</text>
    </g>
  </g>
  <g id="sig_6">
    <g id="mst_sig_6" style="stroke:red;stroke-width:2">
      <g id="bs_mst_sig_6" style="stroke-width:3">
        <line x1="546" y1="170" x2="546" y2="180" />
      </g>
      <line x1="546" y1="175" x2="564" y2="175" />
    </g>
    <g id="rbs_sig_6" style="fill:transparent">
      <rect x="555" y="171" width="8" height="8" />
    </g>
    <g id="cir_sig_6" style="fill:red">
      <circle cx="569" cy="175" r="5" />
    </g>
    <g id="lbl_sig_6" style="fill:lightgrey;">
      <text x="530" y="174" style="fill:white;font-family:Arial;text-anchor:middle;dominant-baseline:middle;font-size:9px">S2</text>
    </g>
  </g>
  <g id="sig_7">
    <g id="mst_sig_7" style="stroke:red;stroke-width:2">
      <g id="bs_mst_sig_7" style="stroke-width:3">
        <line x1="546" y1="145" x2="546" y2="155" />
      </g>
      <line x1="546" y1="150" x2="564" y2="150" />
    </g>
    <g id="rbs_sig_7" style="fill:transparent">
      <rect x="555" y="146" width="8" height="8" />
    </g>
    <g id="cir_sig_7" style="fill:red">
      <circle cx="569" cy="150" r="5" />
    </g>
    <g id="lbl_sig_7" style="fill:lightgrey;">
      <text x="530" y="149" style="fill:white;font-family:Arial;text-anchor:middle;dominant-baseline:middle;font-size:9px">S3</text>
    </g>
  </g>
  <g id="sig_8">
    <g id="mst_sig_8" style="stroke:red;stroke-width:2">
      <g id="bs_mst_sig_8" style="stroke-width:3">
        <line x1="546" y1="120" x2="546" y2="130" />
      </g>
      <line x1="546" y1="125" x2="564" y2="125" />
    </g>
    <g id="rbs_sig_8" style="fill:transparent">
      <rect x="555" y="121" width="8" height="8" />
    </g>
    <g id="cir_sig_8" style="fill:red">
      <circle cx="569" cy="125" r="5" />
    </g>
    <g id="lbl_sig_8" style="fill:lightgrey;">
      <text x="530" y="124" style="fill:white;font-family:Arial;text-anchor:middle;dominant-baseline:middle;font-size:9px">S4</text>
    </g>
  </g>
  <g id="sig_9">
    <g id="mst_sig_9" style="stroke:red;stroke-width:2">
      <g id="bs_mst_sig_9" style="stroke-width:3">
        <line x1="546" y1="85" x2="546" y2="95" />
      </g>
      <line x1="546" y1="90" x2="564" y2="90" />
    </g>
    <g id="rbs_sig_9" style="fill:transparent">
      <rect x="555" y="86" width="8" height="8" />
    </g>
    <g id="cir_sig_9" style="fill:red">
      <circle cx="569" cy="90" r="5" />
    </g>
    <g id="lbl_sig_9" style="fill:lightgrey;">
      <text x="530" y="89" style="fill:white;font-family:Arial;text-anchor:middle;dominant-baseline:middle;font-size:9px">I1</text>
    </g>
  </g>
  <g id="sig_10">
    <g id="mst_sig_10" style="stroke:red;stroke-width:2">
      <g id="bs_mst_sig_10" style="stroke-width:3">
        <line x1="1385" y1="420" x2="1385" y2="430" />
      </g>
      <line x1="1385" y1="425" x2="1403" y2="425" />
    </g>
    <g id="rbs_sig_10" style="fill:transparent">
      <rect x="1394" y="421" width="8" height="8" />
    </g>
    <g id="cir_sig_10" style="fill:red">
      <circle cx="1408" cy="425" r="5" />
    </g>
    <g id="lbl_sig_10" style="fill:lightgrey;">
      <text x="1369" y="424" style="fill:white;font-family:Arial;text-anchor:middle;dominant-baseline:middle;font-size:9px">A21</text>
    </g>
  </g>
  <g id="sig_11">
    <g id="mst_sig_11" style="stroke:red;stroke-width:2">
      <g id="bs_mst_sig_11" style="stroke-width:3">
        <line x1="1380" y1="655" x2="1380" y2="665" />
      </g>
      <line x1="1362" y1="660" x2="1379" y2="660" />
    </g>
    <g id="rbs_sig_11" style="fill:transparent">
      <rect x="1363" y="656" width="8" height="8" />
    </g>
    <g id="cir_sig_11" style="fill:red">
      <circle cx="1357" cy="660" r="5" />
    </g>
    <g id="lbl_sig_11" style="fill:lightgrey;">
      <text x="1389" y="659" style="fill:white;font-family:Arial;text-anchor:middle;dominant-baseline:middle;font-size:9px">E21</text>
    </g>
  </g>
  <g id="sig_12">
    <g id="mst_sig_12" style="stroke:red;stroke-width:2">
      <g id="bs_mst_sig_12" style="stroke-width:3">
        <line x1="1380" y1="692" x2="1380" y2="702" />
      </g>
      <line x1="1362" y1="697" x2="1379" y2="697" />
    </g>
    <g id="rbs_sig_12" style="fill:transparent">
      <rect x="1363" y="693" width="8" height="8" />
    </g>
    <g id="cir_sig_12" style="fill:red">
      <circle cx="1357" cy="697" r="5" />
    </g>
    <g id="lbl_sig_12" style="fill:lightgrey;">
      <text x="1389" y="696" style="fill:white;font-family:Arial;text-anchor:middle;dominant-baseline:middle;font-size:9px">E22</text>
    </g>
  </g>
  <g id="sig_13">
    <g id="mst_sig_13" style="stroke:red;stroke-width:2">
      <g id="bs_mst_sig_13" style="stroke-width:3">
        <line x1="1051" y1="655" x2="1051" y2="665" />
      </g>
      <line x1="1033" y1="660" x2="1050" y2="660" />
    </g>
    <g id="rbs_sig_13" style="fill:transparent">
      <rect x="1034" y="656" width="8" height="8" />
    </g>
    <g id="cir_sig_13" style="fill:red">
      <circle cx="1028" cy="660" r="5" />
    </g>
    <g id="lbl_sig_13" style="fill:lightgrey;">
      <text x="1060" y="659" style="fill:white;font-family:Arial;text-anchor:middle;dominant-baseline:middle;font-size:9px">S21</text>
    </g>
  </g>
  <g id="sig_14">
    <g id="mst_sig_14" style="stroke:red;stroke-width:2">
      <g id="bs_mst_sig_14" style="stroke-width:3">
        <line x1="1051" y1="692" x2="1051" y2="702" />
      </g>
      <line x1="1033" y1="697" x2="1050" y2="697" />
    </g>
    <g id="rbs_sig_14" style="fill:transparent">
      <rect x="1034" y="693" width="8" height="8" />
    </g>
    <g id="cir_sig_14" style="fill:red">
      <circle cx="1028" cy="697" r="5" />
    </g>
    <g id="lbl_sig_14" style="fill:lightgrey;">
      <text x="1060" y="696" style="fill:white;font-family:Arial;text-anchor:middle;dominant-baseline:middle;font-size:9px">S22</text>
    </g>
  </g>
</svg>